<?xml version="1.0" encoding="utf-8"?>
<!-- Generator: Adobe Illustrator 19.0.0, SVG Export Plug-In . SVG Version: 6.00 Build 0)  -->
<svg version="1.1" id="Слой_1" xmlns="http://www.w3.org/2000/svg" xmlns:xlink="http://www.w3.org/1999/xlink" x="0px" y="0px"
	 viewBox="0 0 80.8 81" style="enable-background:new 0 0 80.8 81;" xml:space="preserve">
<style type="text/css">
	.st0{fill-rule:evenodd;clip-rule:evenodd;fill:#713420;}
	.st1{fill-rule:evenodd;clip-rule:evenodd;fill:#AD5039;}
	.st2{fill-rule:evenodd;clip-rule:evenodd;fill:#C75B42;}
	.st3{fill-rule:evenodd;clip-rule:evenodd;fill:#D76349;}
	.st4{fill-rule:evenodd;clip-rule:evenodd;fill:#8A412D;}
	.st5{fill:#4D59A1;}
	.st6{fill-rule:evenodd;clip-rule:evenodd;fill:#573834;}
	.st7{fill-rule:evenodd;clip-rule:evenodd;fill:#F6DBCF;}
</style>
<polygon id="XMLID_176_" class="st0" points="60.8,40.4 60.8,50 50.8,45.2 40.8,40.4 50.8,35.6 60.8,30.8 "/>
<polygon id="XMLID_175_" class="st1" points="60.8,21.3 60.8,30.9 50.8,26.1 40.8,21.3 50.8,16.5 60.8,11.7 "/>
<path id="XMLID_174_" class="st1" d="M20.8,21.3v9.6l-10-4.8c-2-0.9-3.9-1.9-5.9-2.8c0.4-0.9,0.9-1.8,1.5-2.7c0.6-1,1.2-2,1.9-2.8
	c0.5-0.2,2-1,2.5-1.2c3.3-1.6,6.7-3.2,10-4.8V21.3z"/>
<path id="XMLID_173_" class="st1" d="M20.8,59.6v9.6l-10-4.8c-1.1-0.5-2.1-1-3.2-1.5c-0.5-0.7-1-1.5-1.4-2.3c-0.6-1-1.1-1.9-1.5-2.9
	c2-1,4.1-2,6.1-2.9l10-4.8V59.6z"/>
<polygon id="XMLID_172_" class="st2" points="40.8,11.7 40.8,21.3 30.8,16.5 20.8,11.7 30.8,6.9 40.8,2.1 "/>
<path id="XMLID_171_" class="st3" d="M20.8,6.4c0,1.8,0,3.5,0,5.3c-1.6-0.7-3.2-1.4-4.8-2.1c0.7-0.6,1.5-1.1,2.3-1.7
	C19.2,7.4,20,6.9,20.8,6.4z"/>
<path id="XMLID_170_" class="st2" d="M70,13.7c1.3,1.4,2.5,2.8,3.4,4.1c-0.9-0.4-1.8-0.8-2.7-1.3l-10-4.8c1.5-0.7,3.1-1.5,4.6-2.2
	C66.9,10.6,68.4,12,70,13.7z"/>
<path id="XMLID_169_" class="st3" d="M60.8,11.7l-10-4.8l-10-4.8c0.7-0.3,1.3-0.6,2-1c2.9,0.1,7.2,0.7,11.9,2.4
	c4.8,1.8,8.4,4.1,10.7,5.9C63.9,10.3,62.3,11,60.8,11.7z"/>
<polygon id="XMLID_168_" class="st2" points="40.8,11.7 40.8,2.1 50.8,6.9 60.8,11.7 50.8,16.5 40.8,21.3 "/>
<path id="XMLID_167_" class="st3" d="M20.8,6.4c2.1-1.2,4.8-2.4,8-3.4c3.9-1.2,7.3-1.7,10-1.8c0.7,0.3,1.3,0.6,2,1l-10,4.8l-10,4.8
	C20.8,10,20.8,8.2,20.8,6.4z"/>
<path id="XMLID_166_" class="st3" d="M66,71.6c-2.2,1.7-5.2,3.7-9.1,5.4c-5.1,2.2-9.8,2.9-13,3.2c-1-0.5-2.1-1-3.1-1.5l10-4.8
	l10-4.8C62.5,69.9,64.2,70.8,66,71.6z"/>
<path id="XMLID_165_" class="st3" d="M15.7,71.6c1.7-0.8,3.4-1.6,5.1-2.4l10,4.8l10,4.8c-1,0.5-2,1-3.1,1.5
	c-3.4-0.3-8.4-1.1-13.8-3.6C20.5,75,17.8,73.2,15.7,71.6z"/>
<path id="XMLID_164_" class="st2" d="M10.7,14.6c1.1-1.3,2.1-2.2,2.5-2.6c1-0.9,1.9-1.7,2.8-2.4c1.6,0.7,3.2,1.4,4.8,2.1l-10,4.8
	c-0.9,0.4-1.7,0.8-2.6,1.2C9.2,16.5,10,15.5,10.7,14.6z"/>
<path id="XMLID_163_" class="st2" d="M10.3,66.4c1.1,1.3,2.1,2.2,2.7,2.8c1,1,2,1.8,2.7,2.4c1.7-0.8,3.4-1.6,5.1-2.4
	c-3.3-1.6-6.7-3.2-10-4.8c-1.1-0.5-2.1-1-3.2-1.5C8.6,64.3,9.6,65.5,10.3,66.4z"/>
<polygon id="XMLID_162_" class="st2" points="40.8,69.1 40.8,59.6 50.8,64.3 60.8,69.1 50.8,73.9 40.8,78.7 "/>
<polygon id="XMLID_161_" class="st2" points="40.8,69.1 40.8,78.7 30.8,73.9 20.8,69.1 30.8,64.3 40.8,59.6 "/>
<path id="XMLID_160_" class="st2" d="M71.2,66.4c-1.8,2.1-3.6,3.8-5.3,5.1c-1.8-0.8-3.5-1.6-5.3-2.4l10-4.8c1.2-0.6,2.4-1.1,3.6-1.7
	C73.3,63.8,72.3,65.1,71.2,66.4z"/>
<polygon id="XMLID_159_" class="st1" points="60.8,59.6 60.8,69.1 50.8,64.3 40.8,59.6 50.8,54.8 60.8,50 "/>
<polygon id="XMLID_158_" class="st1" points="20.8,59.6 20.8,50 30.8,54.8 40.8,59.6 30.8,64.3 20.8,69.1 "/>
<polygon id="XMLID_157_" class="st1" points="20.8,21.3 20.8,11.7 30.8,16.5 40.8,21.3 30.8,26.1 20.8,30.9 "/>
<path id="XMLID_156_" class="st1" d="M60.8,21.3v-9.6l10,4.8c0.9,0.4,1.7,0.8,2.6,1.3c0.5,0.8,1.1,1.6,1.7,2.5c0.6,1,1.2,2.1,1.7,3
	c-2,0.9-4,1.9-5.9,2.8c-3.3,1.6-6.7,3.2-10,4.8V21.3z"/>
<path id="XMLID_155_" class="st1" d="M60.8,59.6V50l10,4.8c2.1,1,4.1,2,6.2,3c-0.4,0.8-0.8,1.7-1.4,2.7c-0.5,0.8-1,1.6-1.4,2.2
	c-4.5,2.2-8.9,4.3-13.4,6.5V59.6z"/>
<path id="XMLID_154_" class="st1" d="M38.8,1.2c0.7,0,1.4-0.1,2.2-0.1c0.7,0,1.3,0,1.9,0.1c-0.7,0.3-1.4,0.6-2,1
	C40.1,1.8,39.4,1.5,38.8,1.2z"/>
<path id="XMLID_153_" class="st1" d="M43.9,80.2c-1,0.1-2,0.1-3.1,0.1c-1.1,0-2.1-0.1-3.1-0.2c1-0.5,2.1-1,3.1-1.5
	C41.8,79.2,42.9,79.7,43.9,80.2z"/>
<polygon id="XMLID_152_" class="st0" points="20.8,40.4 20.8,50 10.8,45.2 0.8,40.4 10.8,35.6 20.8,30.8 "/>
<polygon id="XMLID_151_" class="st0" points="20.8,40.4 20.8,30.8 30.8,35.6 40.8,40.4 30.8,45.2 20.8,50 "/>
<polygon id="XMLID_150_" class="st0" points="60.8,40.4 60.8,30.8 70.8,35.6 80.8,40.4 70.8,45.2 60.8,50 "/>
<polygon id="XMLID_149_" class="st4" points="40.8,30.8 40.8,21.3 50.8,26.1 60.8,30.8 50.8,35.6 40.8,40.4 "/>
<path id="XMLID_148_" class="st4" d="M1.9,49.7c-0.9-3.6-1.1-6.8-1.1-9.3l10,4.8l10,4.8l-10,4.8c-2,1-4.1,2-6.1,2.9
	C3.7,55.6,2.7,52.9,1.9,49.7z"/>
<path id="XMLID_147_" class="st4" d="M2.1,31c0.8-3.1,1.9-5.7,2.9-7.8c2,0.9,3.9,1.9,5.9,2.8l10,4.8l-10,4.8l-10,4.8
	C0.9,37.9,1.1,34.7,2.1,31z"/>
<polygon id="XMLID_146_" class="st4" points="40.8,30.8 40.8,40.4 30.8,35.6 20.8,30.8 30.8,26.1 40.8,21.3 "/>
<path id="XMLID_145_" class="st4" d="M79.5,30.8c1,3.8,1.2,7.1,1.2,9.6l-10-4.8l-10-4.8l10-4.8c2-0.9,4-1.9,5.9-2.8
	C77.7,25.2,78.8,27.7,79.5,30.8z"/>
<path id="XMLID_144_" class="st4" d="M79.7,50c-0.8,3.1-1.8,5.8-2.8,7.8c-2.1-1-4.1-2-6.2-3l-10-4.8l10-4.8l10-4.8
	C80.8,42.9,80.6,46.2,79.7,50z"/>
<polygon id="XMLID_143_" class="st4" points="40.8,50 40.8,40.4 50.8,45.2 60.8,50 50.8,54.8 40.8,59.6 "/>
<polygon id="XMLID_142_" class="st4" points="40.8,50 40.8,59.6 30.8,54.8 20.8,50 30.8,45.2 40.8,40.4 "/>
<path id="XMLID_72_" class="st5" d="M40.8,80.3c-10.7,0-20.7-4.1-28.3-11.6C5,61.2,0.8,51.3,0.8,40.7s4.2-20.5,11.7-28
	C20.1,5.2,30.2,1.1,40.8,1.1s20.7,4.1,28.3,11.6c7.6,7.5,11.7,17.4,11.7,28s-4.2,20.5-11.7,28C61.6,76.2,51.5,80.3,40.8,80.3z
	 M40.8,1.2c-22,0-39.9,17.7-39.9,39.5s17.9,39.5,39.9,39.5s39.9-17.7,39.9-39.5S62.8,1.2,40.8,1.2z"/>
<path id="XMLID_138_" class="st6" d="M58.5,53.4c5.3-0.4,11-7.7,10.8-12.9l0-7.1l0-10l-5.9,7.3l0,10.3
	C63.5,44.8,62.4,48.8,58.5,53.4L58.5,53.4z"/>
<path id="XMLID_137_" class="st6" d="M44.2,39c-1.5,1.9-2.9,3.7-4.4,5.6c0.2,7.3,4.8,13.4,10.7,15c7.7,2,17.2-3.9,18.8-14
	c-2.2,6.8-9.4,10.7-16.1,8.7C46.8,52.4,42.8,45.7,44.2,39z"/>
<path id="XMLID_136_" class="st6" d="M16.8,38.5c-0.1-0.8-0.7-8.3,4.9-13.1c3.2-2.7,6.7-3.2,8.2-3.4l7.1,0c3.5,0,7,0,10.4,0
	c-1.5,1.9-3,3.8-4.5,5.7c-4.5,0.1-9.1,0.1-13.6,0.2c-1.9,0-2.7,0.1-3.8,0.4C20.7,29.7,18.1,35.1,16.8,38.5z"/>
<path id="XMLID_135_" class="st6" d="M16.4,55c0-0.4-0.1-0.9-0.1-1.6c0-2.3-0.1-6.9,2.4-10.3c3.2-4.2,9.1-4.3,10-4.3
	c1.3,0,2.6,0,3.9,0c3.5,0,7,0,10.4,0c-1.5,1.9-3,3.7-4.5,5.6c-5.3,0-9.2,0-10.8,0c-0.3,0-1.1,0-1.9,0.4c-0.8,0.3-1.3,0.7-1.6,0.9
	c0,0-3.8,2.9-3.8,10.7c0,0.1,0,0.8,0,1.7c0,0.5,0,0.9,0,1.4c0,0.8-0.1,0.8-0.1,1.4c0,0.3,0,0.5,0,0.5C20.2,61.5,19.2,60.1,16.4,55z"
	/>
<path id="XMLID_134_" class="st6" d="M24.4,39.8c-0.2,0.2-0.9,1.1-1,2.4c-0.1,1.5,0.8,2.6,0.9,2.8c-0.5,0.7-1.2,1.8-1.7,3.3
	c-0.6,1.7-0.7,3.2-0.7,4.2c0,3.5,0,6.9,0,10.4c-1.9-1.5-3.8-3-5.7-4.5c-0.1-1.2-0.2-3.1-0.1-5.4c0.3-4.4,0.5-7.8,2.9-10.4
	C19.8,41.8,21.4,40.5,24.4,39.8z"/>
<path id="XMLID_133_" class="st7" d="M56.6,51.4c5.3-0.4,11-7.7,10.8-12.9l0-7.1l0-10l-5.9,7.3l0,10.3
	C61.5,42.8,60.5,46.8,56.6,51.4L56.6,51.4z"/>
<path id="XMLID_132_" class="st7" d="M42.2,37c-1.5,1.9-2.9,3.7-4.4,5.6c0.2,7.3,4.8,13.4,10.7,15c7.7,2,17.2-3.9,18.8-14
	c-2.2,6.8-9.4,10.7-16.1,8.7C44.9,50.4,40.8,43.8,42.2,37z"/>
<path id="XMLID_131_" class="st7" d="M14.9,36.5c-0.1-0.8-0.7-8.3,4.9-13.1c3.2-2.7,6.7-3.2,8.2-3.4l7.1,0c3.5,0,7,0,10.4,0
	c-1.5,1.9-3,3.8-4.5,5.7c-4.5,0.1-9.1,0.1-13.6,0.2c-1.9,0-2.7,0.1-3.8,0.4C18.7,27.7,16.1,33.1,14.9,36.5z"/>
<path id="XMLID_130_" class="st7" d="M14.4,53c0-0.4-0.1-0.9-0.1-1.6c0-2.3-0.1-6.9,2.4-10.3c3.2-4.2,9.1-4.3,10-4.3
	c1.3,0,2.6,0,3.9,0c3.5,0,7,0,10.4,0c-1.5,1.9-3,3.7-4.5,5.6c-5.3,0-9.2,0-10.8,0c-0.3,0-1.1,0-1.9,0.4c-0.8,0.3-1.3,0.7-1.6,0.9
	c0,0-3.8,2.9-3.8,10.7c0,0.1,0,0.8,0,1.7c0,0.5,0,0.9,0,1.4c0,0.8-0.1,0.8-0.1,1.4c0,0.3,0,0.5,0,0.5C18.2,59.5,17.3,58.1,14.4,53z"
	/>
<path id="XMLID_129_" class="st7" d="M22.4,37.8c-0.2,0.2-0.9,1.1-1,2.4c-0.1,1.5,0.8,2.6,0.9,2.8c-0.5,0.7-1.2,1.8-1.7,3.3
	C20,48,19.9,49.5,20,50.5c0,3.5,0,6.9,0,10.4c-1.9-1.5-3.8-3-5.7-4.5c-0.1-1.2-0.2-3.1-0.1-5.4c0.3-4.4,0.5-7.8,2.9-10.4
	C17.9,39.8,19.4,38.5,22.4,37.8z"/>
</svg>
