<?xml version="1.0" encoding="utf-8"?>
<!-- Generator: Adobe Illustrator 19.0.0, SVG Export Plug-In . SVG Version: 6.00 Build 0)  -->
<svg version="1.1" id="Слой_1" xmlns="http://www.w3.org/2000/svg" xmlns:xlink="http://www.w3.org/1999/xlink" x="0px" y="0px"
	 viewBox="0 0 441.7 84.8" style="enable-background:new 0 0 441.7 84.8;" xml:space="preserve">
<style type="text/css">
	.st0{display:none;}
	.st1{display:inline;fill:#713420;}
	.st2{display:inline;fill:#FFFFFF;}
	.st3{fill-rule:evenodd;clip-rule:evenodd;fill:#8A412D;}
	.st4{fill-rule:evenodd;clip-rule:evenodd;fill:#713420;}
	.st5{fill-rule:evenodd;clip-rule:evenodd;fill:#AD5039;}
	.st6{fill-rule:evenodd;clip-rule:evenodd;fill:#C75B42;}
	.st7{fill-rule:evenodd;clip-rule:evenodd;fill:#D76349;}
	.st8{fill:#4D59A1;}
	.st9{fill-rule:evenodd;clip-rule:evenodd;fill:#573834;}
	.st10{fill-rule:evenodd;clip-rule:evenodd;fill:#FFFFFF;}
	.st11{fill:#FFFFFF;}
	.st12{fill-rule:evenodd;clip-rule:evenodd;fill:#F6DBCF;}
</style>
<g id="Слой_77" class="st0">
	<rect id="XMLID_9_" x="-86.8" y="-249.3" class="st1" width="595.3" height="841.9"/>
	<circle id="XMLID_1_" class="st2" cx="46.7" cy="42.9" r="41.4"/>
</g>
<g id="Слой_76">
	<path class="st3" d="M85.4,336.8c1,0.5,1.2,1,1.2,1.3l-10-0.7l-10-0.7l10-0.7c2-0.1,4-0.3,5.9-0.4C83.6,336,84.6,336.4,85.4,336.8z
		"/>
</g>
<g id="Слой_75">
	<polygon class="st4" points="66.7,42.7 66.7,52.3 56.7,47.5 46.7,42.7 56.7,38 66.7,33.2 	"/>
</g>
<g id="Слой_74">
	<polygon class="st5" points="66.7,23.6 66.7,33.2 56.7,28.4 46.7,23.6 56.7,18.8 66.7,14 	"/>
</g>
<g id="Слой_73">
	<path class="st5" d="M26.8,23.6v9.6l-10-4.8c-2-0.9-3.9-1.9-5.9-2.8c0.4-0.9,0.9-1.8,1.5-2.7c0.6-1,1.2-2,1.9-2.8
		c0.5-0.2,2-1,2.5-1.2c3.3-1.6,6.7-3.2,10-4.8V23.6z"/>
</g>
<g id="Слой_72">
	<path class="st5" d="M26.8,61.9v9.6l-10-4.8c-1.1-0.5-2.1-1-3.2-1.5c-0.5-0.7-1-1.5-1.4-2.3c-0.6-1-1.1-1.9-1.5-2.9
		c2-1,4.1-2,6.1-2.9l10-4.8V61.9z"/>
</g>
<g id="Слой_71">
	<polygon class="st6" points="46.7,14 46.7,23.6 36.8,18.8 26.8,14 36.8,9.3 46.7,4.5 	"/>
</g>
<g id="Слой_70">
	<path class="st7" d="M26.8,8.8c0,1.8,0,3.5,0,5.3c-1.6-0.7-3.2-1.4-4.8-2.1c0.7-0.6,1.5-1.1,2.3-1.7C25.1,9.7,26,9.2,26.8,8.8z"/>
</g>
<g id="Слой_69">
	<path class="st6" d="M76,16c1.3,1.4,2.5,2.8,3.4,4.1c-0.9-0.4-1.8-0.8-2.7-1.3l-10-4.8c1.5-0.7,3.1-1.5,4.6-2.2
		C72.8,12.9,74.4,14.3,76,16z"/>
</g>
<g id="Слой_68">
	<path class="st7" d="M66.7,14l-10-4.8l-10-4.8c0.7-0.3,1.3-0.6,2-1c2.9,0.1,7.2,0.7,11.9,2.4c4.8,1.8,8.4,4.1,10.7,5.9
		C69.8,12.6,68.3,13.3,66.7,14z"/>
</g>
<g id="Слой_67">
	<polygon class="st6" points="46.7,14 46.7,4.5 56.7,9.3 66.7,14 56.7,18.8 46.7,23.6 	"/>
</g>
<g id="Слой_66">
	<path class="st7" d="M26.8,8.8c2.1-1.2,4.8-2.4,8-3.4c3.9-1.2,7.3-1.7,10-1.8c0.7,0.3,1.3,0.6,2,1l-10,4.8l-10,4.8
		C26.8,12.3,26.8,10.5,26.8,8.8z"/>
</g>
<g id="Слой_65">
	<path class="st7" d="M71.9,73.9c-2.2,1.7-5.2,3.7-9.1,5.4c-5.1,2.2-9.8,2.9-13,3.2c-1-0.5-2.1-1-3.1-1.5l10-4.8l10-4.8
		C68.5,72.3,70.2,73.1,71.9,73.9z"/>
</g>
<g id="Слой_64">
	<path class="st7" d="M21.7,73.9c1.7-0.8,3.4-1.6,5.1-2.4l10,4.8l10,4.8c-1,0.5-2,1-3.1,1.5c-3.4-0.3-8.4-1.1-13.8-3.6
		C26.4,77.3,23.7,75.5,21.7,73.9z"/>
</g>
<g id="Слой_63">
	<path class="st6" d="M16.7,17c1.1-1.3,2.1-2.2,2.5-2.6c1-0.9,1.9-1.7,2.8-2.4c1.6,0.7,3.2,1.4,4.8,2.1l-10,4.8
		c-0.9,0.4-1.7,0.8-2.6,1.2C15.1,18.8,16,17.8,16.7,17z"/>
</g>
<g id="Слой_62">
	<path class="st6" d="M16.3,68.7c1.1,1.3,2.1,2.2,2.7,2.8c1,1,2,1.8,2.7,2.4c1.7-0.8,3.4-1.6,5.1-2.4c-3.3-1.6-6.7-3.2-10-4.8
		c-1.1-0.5-2.1-1-3.2-1.5C14.6,66.6,15.5,67.8,16.3,68.7z"/>
</g>
<g id="Слой_61">
	<polygon class="st6" points="46.7,71.5 46.7,61.9 56.7,66.7 66.7,71.5 56.7,76.2 46.7,81 	"/>
</g>
<g id="Слой_60">
	<polygon class="st6" points="46.7,71.5 46.7,81 36.8,76.2 26.8,71.5 36.8,66.7 46.7,61.9 	"/>
</g>
<g id="Слой_59">
	<path class="st6" d="M77.1,68.8c-1.8,2.1-3.6,3.8-5.3,5.1c-1.8-0.8-3.5-1.6-5.3-2.4l10-4.8c1.2-0.6,2.4-1.1,3.6-1.7
		C79.2,66.2,78.3,67.4,77.1,68.8z"/>
</g>
<g id="Слой_58">
	<polygon class="st5" points="66.7,61.9 66.7,71.5 56.7,66.7 46.7,61.9 56.7,57.1 66.7,52.3 	"/>
</g>
<g id="Слой_57">
	<polygon class="st5" points="26.8,61.9 26.8,52.3 36.8,57.1 46.7,61.9 36.8,66.7 26.8,71.5 	"/>
</g>
<g id="Слой_56">
	<polygon class="st5" points="26.8,23.6 26.8,14 36.8,18.8 46.7,23.6 36.8,28.4 26.8,33.2 	"/>
</g>
<g id="Слой_55">
	<path class="st5" d="M66.7,23.6V14l10,4.8c0.9,0.4,1.7,0.8,2.6,1.3c0.5,0.8,1.1,1.6,1.7,2.5c0.6,1,1.2,2.1,1.7,3
		c-2,0.9-4,1.9-5.9,2.8c-3.3,1.6-6.7,3.2-10,4.8V23.6z"/>
</g>
<g id="Слой_54">
	<path class="st5" d="M66.7,61.9v-9.6l10,4.8c2.1,1,4.1,2,6.2,3c-0.4,0.8-0.8,1.7-1.4,2.7c-0.5,0.8-1,1.6-1.4,2.2
		c-4.5,2.2-8.9,4.3-13.4,6.5V61.9z"/>
</g>
<g id="Слой_53">
	<path class="st5" d="M44.7,3.5c0.7,0,1.4-0.1,2.2-0.1c0.7,0,1.3,0,1.9,0.1c-0.7,0.3-1.4,0.6-2,1C46.1,4.2,45.4,3.8,44.7,3.5z"/>
</g>
<g id="Слой_52">
	<path class="st5" d="M49.9,82.5c-1,0.1-2,0.1-3.1,0.1c-1.1,0-2.1-0.1-3.1-0.2c1-0.5,2.1-1,3.1-1.5C47.8,81.5,48.8,82,49.9,82.5z"/>
</g>
<g id="Слой_51">
	<polygon class="st4" points="26.8,42.7 26.8,52.3 16.8,47.5 6.8,42.7 16.8,38 26.8,33.2 	"/>
</g>
<g id="Слой_50">
	<polygon class="st4" points="26.8,42.7 26.8,33.2 36.8,38 46.7,42.7 36.8,47.5 26.8,52.3 	"/>
</g>
<g id="Слой_49">
	<polygon class="st4" points="66.7,42.7 66.7,33.2 76.7,38 86.7,42.7 76.7,47.5 66.7,52.3 	"/>
</g>
<g id="Слой_48">
	<polygon class="st3" points="46.7,33.2 46.7,23.6 56.7,28.4 66.7,33.2 56.7,38 46.7,42.7 	"/>
</g>
<g id="Слой_47">
	<path class="st3" d="M7.8,52.1c-0.9-3.6-1.1-6.8-1.1-9.3l10,4.8l10,4.8l-10,4.8c-2,1-4.1,2-6.1,2.9C9.7,58,8.6,55.3,7.8,52.1z"/>
</g>
<g id="Слой_46">
	<path class="st3" d="M8,33.3c0.8-3.1,1.9-5.7,2.9-7.8c2,0.9,3.9,1.9,5.9,2.8l10,4.8l-10,4.8l-10,4.8C6.8,40.3,7.1,37,8,33.3z"/>
</g>
<g id="Слой_45">
	<polygon class="st3" points="46.7,33.2 46.7,42.7 36.8,38 26.8,33.2 36.8,28.4 46.7,23.6 	"/>
</g>
<g id="Слой_44">
	<path class="st3" d="M85.5,33.1c1,3.8,1.2,7.1,1.2,9.6l-10-4.8l-10-4.8l10-4.8c2-0.9,4-1.9,5.9-2.8C83.6,27.5,84.7,30.1,85.5,33.1z
		"/>
</g>
<g id="Слой_43">
	<path class="st3" d="M85.7,52.3c-0.8,3.1-1.8,5.8-2.8,7.8c-2.1-1-4.1-2-6.2-3l-10-4.8l10-4.8l10-4.8C86.8,45.3,86.6,48.6,85.7,52.3
		z"/>
</g>
<g id="Слой_42">
	<polygon class="st3" points="46.7,52.3 46.7,42.7 56.7,47.5 66.7,52.3 56.7,57.1 46.7,61.9 	"/>
</g>
<g id="Слой_41">
	<polygon class="st3" points="46.7,52.3 46.7,61.9 36.8,57.1 26.8,52.3 36.8,47.5 46.7,42.7 	"/>
</g>
<g id="Слой_40">
	<path id="XMLID_72_" class="st8" d="M46.8,82.6c-10.7,0-20.7-4.1-28.3-11.6C11,63.6,6.8,53.6,6.8,43s4.2-20.5,11.7-28
		C26.1,7.6,36.1,3.5,46.8,3.5S67.5,7.6,75,15.1c7.6,7.5,11.7,17.4,11.7,28S82.6,63.6,75,71C67.5,78.5,57.5,82.6,46.8,82.6z
		 M46.8,3.6C24.8,3.6,6.9,21.3,6.9,43s17.9,39.5,39.9,39.5S86.7,64.8,86.7,43S68.8,3.6,46.8,3.6z"/>
</g>
<g id="Слой_39">
	<path class="st9" d="M64.5,55.7c5.3-0.4,11-7.7,10.8-12.9l0-7.1l0-10L69.4,33l0,10.3C69.4,47.1,68.4,51.1,64.5,55.7L64.5,55.7z"/>
</g>
<g id="Слой_38">
	<path class="st9" d="M50.1,41.3c-1.5,1.9-2.9,3.7-4.4,5.6c0.2,7.3,4.8,13.4,10.7,15c7.7,2,17.2-3.9,18.8-14
		c-2.2,6.8-9.4,10.7-16.1,8.7C52.8,54.7,48.7,48.1,50.1,41.3z"/>
</g>
<g id="Слой_37">
	<path class="st9" d="M22.8,40.8c-0.1-0.8-0.7-8.3,4.9-13.1c3.2-2.7,6.7-3.2,8.2-3.4l7.1,0c3.5,0,7,0,10.4,0c-1.5,1.9-3,3.8-4.5,5.7
		c-4.5,0.1-9.1,0.1-13.6,0.2c-1.9,0-2.7,0.1-3.8,0.4C26.6,32.1,24,37.4,22.8,40.8z"/>
</g>
<g id="Слой_36">
	<path class="st9" d="M22.3,57.3c0-0.4-0.1-0.9-0.1-1.6c0-2.3-0.1-6.9,2.4-10.3c3.2-4.2,9.1-4.3,10-4.3c1.3,0,2.6,0,3.9,0
		c3.5,0,7,0,10.4,0c-1.5,1.9-3,3.7-4.5,5.6c-5.3,0-9.2,0-10.8,0c-0.3,0-1.1,0-1.9,0.4c-0.8,0.3-1.3,0.7-1.6,0.9
		c0,0-3.8,2.9-3.8,10.7c0,0.1,0,0.8,0,1.7c0,0.5,0,0.9,0,1.4c0,0.8-0.1,0.8-0.1,1.4c0,0.3,0,0.5,0,0.5
		C26.1,63.8,25.2,62.4,22.3,57.3z"/>
</g>
<g id="Слой_35">
	<path class="st9" d="M30.3,42.2c-0.2,0.2-0.9,1.1-1,2.4c-0.1,1.5,0.8,2.6,0.9,2.8c-0.5,0.7-1.2,1.8-1.7,3.3
		c-0.6,1.7-0.7,3.2-0.7,4.2c0,3.5,0,6.9,0,10.4c-1.9-1.5-3.8-3-5.7-4.5c-0.1-1.2-0.2-3.1-0.1-5.4c0.3-4.4,0.5-7.8,2.9-10.4
		C25.8,44.2,27.3,42.8,30.3,42.2z"/>
</g>
<g id="Слой_34">
	<path class="st10" d="M104.5,50.5V32.1c0-3.2,0.8-5.5,2.4-7c1.6-1.5,4-2.3,7.3-2.3h4.9v6.5h-4.8c-2,0-2.9,0.9-2.9,2.8v1.8h7.7v6.5
		h-7.7v10.1H104.5L104.5,50.5z M289.5,22.8h6.9v17.4c0,3.1-0.8,5.6-2.4,7.5c-1.8,2.2-4.4,3.3-7.9,3.3c-2.4,0-4.6-0.9-6.5-2.6
		c-2.1-1.9-3.2-4.4-3.2-7.4c0-0.3,0-0.6,0.1-1c0-0.3,0.1-0.7,0.3-1.2l6.4,1.7c0,2.5,1,3.7,3.1,3.7c1.1,0,1.9-0.4,2.4-1.1
		c0.5-0.8,0.8-1.9,0.8-3.5V22.8L289.5,22.8z M122.6,50.5V34.1c0-3.6,1-6.5,2.9-8.6c1.9-2.1,4.5-3.2,7.6-3.2c3.2,0,5.7,1.1,7.7,3.2
		c2,2.1,2.9,5,2.9,8.7v16.4h-6.9v-7.2h-7.4v7.2H122.6L122.6,50.5z M133.2,29.1c-2.5,0-3.7,1.6-3.7,4.7v3.1h7.4v-3.4
		c0-1.3-0.3-2.4-1-3.2C135.2,29.4,134.3,29.1,133.2,29.1L133.2,29.1z M147.4,22.8h17.3v6.1h-10.4v11.7c0,1.1,0.3,2,0.9,2.7
		c0.6,0.7,1.3,1,2.2,1c1.1,0,1.9-0.3,2.5-1c0.5-0.6,0.7-1.4,0.7-2.3c0-0.9-0.3-1.7-0.9-2.3c-0.6-0.6-1.3-1-2.1-1
		c-0.5,0-0.9,0.1-1.3,0.2c-0.3,0.1-0.6,0.3-0.7,0.5l1.3-7.4c3.2,0,5.7,1,7.7,2.9c2,1.9,2.9,4.3,2.9,7.2c0,2.7-1,5-2.9,6.9
		c-1.9,1.9-4.2,2.9-7,2.9c-3.1,0-5.5-1-7.4-3c-1.9-2-2.8-4.5-2.8-7.4V22.8L147.4,22.8z M170.1,50.5V32.7c0-3,0.9-5.5,2.8-7.4
		c1.8-2,4.3-3,7.4-3c2.7,0,5,1,6.9,2.9s2.9,4.2,2.9,6.9c0,2.9-1,5.3-2.9,7.2s-4.5,2.9-7.7,2.9l-1.3-7.4c0.2,0.2,0.4,0.4,0.7,0.5
		c0.3,0.1,0.7,0.2,1.3,0.2c0.8,0,1.6-0.3,2.1-0.9c0.6-0.6,0.9-1.4,0.9-2.4c0-1-0.2-1.8-0.7-2.3c-0.5-0.7-1.4-1-2.5-1
		c-0.8,0-1.5,0.3-2.2,1c-0.6,0.7-0.9,1.6-0.9,2.7v17.9H170.1L170.1,50.5z M192.9,22.8h6.9v16.8c0,3.1,1.2,4.7,3.7,4.7
		c1.2,0,2.1-0.4,2.8-1.2c0.6-0.8,1-2,1-3.5V22.8h6.8v27.7h-6.8v-1.8c-0.3,0.6-0.9,1.2-1.8,1.6c-0.8,0.4-1.8,0.7-2.9,0.7
		c-2.6,0-4.8-1-6.6-3c-2-2.2-3-5.1-3-8.8V22.8L192.9,22.8z M217.9,22.8h6.9v11.1l7.4-11.1h7.5l-8,11.1c1.8,0,3.3,0.6,4.5,1.9
		c1,1.1,1.5,2.5,1.5,4v10.8h-6.8v-9.4c0-0.9-0.3-1.8-0.8-2.4c-0.6-0.7-1.3-1-2.3-1c-0.9,0-1.6,0.3-2.1,0.9c-0.5,0.6-0.8,1.4-0.8,2.4
		v9.4h-6.9V22.8L217.9,22.8z M241.6,50.5V34.1c0-3.6,1-6.5,2.9-8.6c1.9-2.1,4.5-3.2,7.6-3.2c3.2,0,5.7,1.1,7.7,3.2
		c2,2.1,2.9,5,2.9,8.7v16.4h-6.9v-7.2h-7.4v7.2H241.6L241.6,50.5z M252.2,29.1c-2.5,0-3.7,1.6-3.7,4.7v3.1h7.4v-3.4
		c0-1.3-0.3-2.4-1-3.2C254.2,29.4,253.3,29.1,252.2,29.1L252.2,29.1z M300.1,50.5V34.1c0-3.6,1-6.5,2.9-8.6c1.9-2.1,4.5-3.2,7.6-3.2
		c3.2,0,5.7,1.1,7.7,3.2c2,2.1,2.9,5,2.9,8.7v16.4h-6.9v-7.2H307v7.2H300.1L300.1,50.5z M310.7,29.1c-2.5,0-3.7,1.6-3.7,4.7v3.1h7.4
		v-3.4c0-1.3-0.3-2.4-1-3.2C312.7,29.4,311.8,29.1,310.7,29.1L310.7,29.1z M348.7,34.2v16.4h-6.8V33.8c0-3.1-1.2-4.7-3.7-4.7
		c-2.5,0-3.7,1.6-3.7,4.7v9c0,2.7-0.5,4.7-1.5,5.9c-1.1,1.3-3.1,1.9-5.9,1.9H324v-5.5c1.3,0,2.2-0.3,2.8-0.8c0.6-0.6,0.9-1.5,0.9-3
		v-7.1c0-3.6,1-6.5,2.9-8.6c1.9-2.1,4.5-3.2,7.6-3.2c3.1,0,5.7,1.1,7.6,3.2C347.7,27.6,348.7,30.5,348.7,34.2L348.7,34.2z
		 M358.9,33.5h3.5c0.7-3.2,2.4-5.9,5-8c2.6-2.1,5.6-3.2,8.9-3.2c4,0,7.3,1.4,10.1,4.2c2.8,2.8,4.1,6.2,4.1,10.1
		c0,4-1.4,7.4-4.1,10.2c-2.7,2.8-6.1,4.2-10.1,4.2c-3.2,0-6.1-1-8.7-3c-2.6-2-4.3-4.6-5.1-7.8h-3.6v10.4H352V22.8h6.9V33.5
		L358.9,33.5z M369.2,36.6c0,2.1,0.7,3.9,2.1,5.3c1.4,1.5,3.1,2.2,5.1,2.2c2,0,3.7-0.7,5.1-2.2c1.4-1.5,2.1-3.2,2.1-5.3
		c0-2.1-0.7-3.8-2.1-5.3c-1.4-1.5-3.1-2.2-5.1-2.2c-2,0-3.7,0.7-5.1,2.2C369.9,32.7,369.2,34.5,369.2,36.6L369.2,36.6z M396.4,22.8
		l6.8,0c1.8,0,3.4,0.6,4.9,1.9c1.5,1.3,2.2,2.7,2.2,4.2c0,1.4-0.2,2.6-0.6,3.4c-0.4,0.8-1,1.5-1.9,1.9c1.4,1.1,2.3,2.1,2.8,3.2
		c0.5,1.1,0.7,2.5,0.7,4.4c0,2.4-0.8,4.4-2.3,6.1c-1.8,2-4.3,3-7.5,3c-2.5,0-4.6-0.6-6.2-1.7c-0.9-0.6-1.8-1.6-2.7-2.9l4.5-4.4
		c1.4,1.8,2.9,2.8,4.4,2.8c0.9,0,1.7-0.2,2.2-0.7c0.5-0.5,0.8-1.2,0.8-2.2c0-1-0.3-1.7-0.9-2.2c-0.6-0.5-1.4-0.7-2.6-0.7h-2.3v-5.3
		h2.2c0.9,0,1.6-0.2,2-0.7c0.4-0.5,0.7-1.1,0.7-1.8c0-0.7-0.3-1.2-0.8-1.7c-0.5-0.4-1.2-0.7-2.2-0.7h-4.2V22.8L396.4,22.8z
		 M414.3,22.8h6.9v16.8c0,3.1,1.2,4.7,3.7,4.7c1.2,0,2.1-0.4,2.8-1.2c0.6-0.8,1-2,1-3.5V22.8h6.8v27.7h-6.8v-1.8
		c-0.3,0.6-0.9,1.2-1.8,1.6c-0.8,0.4-1.8,0.7-2.9,0.7c-2.6,0-4.8-1-6.6-3c-2-2.2-3-5.1-3-8.8V22.8z"/>
</g>
<g id="Слой_33">
	<line id="XMLID_2_" class="st11" x1="94.5" y1="3" x2="94.5" y2="83.1"/>
</g>
<g id="Слой_32">
	<rect id="XMLID_70_" x="94" y="3" class="st11" width="1" height="80.2"/>
</g>
<g id="Слой_31">
	<path id="XMLID_3_" class="st11" d="M105.4,57.1v4.6h-1V57c0-0.4,0.1-0.8,0.2-1.1s0.3-0.6,0.5-0.9c0.2-0.3,0.5-0.5,0.8-0.6
		c0.3-0.1,0.7-0.2,1.1-0.2c0.4,0,0.7,0.1,1,0.2c0.3,0.1,0.6,0.3,0.8,0.6c0.2,0.2,0.4,0.5,0.5,0.9c0.1,0.4,0.2,0.8,0.2,1.2v4.6h-1
		v-4.6c0-0.6-0.1-1.1-0.4-1.5c-0.3-0.3-0.7-0.5-1.2-0.5c-0.5,0-0.9,0.2-1.2,0.5C105.5,56,105.4,56.5,105.4,57.1z"/>
</g>
<g id="Слой_30">
	<path id="XMLID_5_" class="st11" d="M111.6,59.1V64h-0.9v-4.4c0-0.3,0-0.6,0-0.9c0-0.2,0.1-0.5,0.2-0.8c0.2-0.4,0.5-0.8,0.9-1
		c0.4-0.2,0.8-0.4,1.3-0.4c0.4,0,0.7,0.1,1,0.2s0.6,0.3,0.8,0.6c0.2,0.2,0.4,0.5,0.5,0.8c0.1,0.3,0.2,0.7,0.2,1c0,0.4-0.1,0.7-0.2,1
		c-0.1,0.3-0.3,0.6-0.5,0.8c-0.2,0.2-0.5,0.4-0.8,0.6c-0.3,0.1-0.6,0.2-1,0.2c-0.3,0-0.7-0.1-1-0.2l-0.4-1.1
		c0.4,0.3,0.8,0.5,1.3,0.5c0.5,0,0.9-0.2,1.2-0.5s0.5-0.7,0.5-1.3c0-0.5-0.2-1-0.5-1.3c-0.3-0.3-0.7-0.5-1.2-0.5
		c-0.5,0-0.9,0.2-1.2,0.5C111.7,58.2,111.6,58.6,111.6,59.1z"/>
</g>
<g id="Слой_29">
	<path id="XMLID_8_" class="st11" d="M118.9,56.5c0.4,0,0.7,0.1,1,0.2c0.3,0.1,0.6,0.3,0.8,0.6c0.2,0.2,0.4,0.5,0.6,0.8
		c0.1,0.3,0.2,0.6,0.2,1c0,0.4-0.1,0.7-0.2,1c-0.1,0.3-0.3,0.6-0.5,0.8c-0.2,0.2-0.5,0.4-0.8,0.6c-0.3,0.1-0.6,0.2-1,0.2
		c-0.4,0-0.7-0.1-1-0.2s-0.6-0.3-0.8-0.6c-0.2-0.2-0.4-0.5-0.5-0.8c-0.1-0.3-0.2-0.6-0.2-1s0.1-0.7,0.2-1s0.3-0.6,0.5-0.8
		c0.2-0.2,0.5-0.4,0.8-0.6C118.2,56.6,118.6,56.5,118.9,56.5z M118.9,57.4c-0.2,0-0.4,0-0.6,0.1c-0.2,0.1-0.4,0.2-0.5,0.4
		c-0.1,0.2-0.3,0.3-0.3,0.6c-0.1,0.2-0.1,0.4-0.1,0.7s0,0.4,0.1,0.7s0.2,0.4,0.3,0.6s0.3,0.3,0.5,0.4s0.4,0.1,0.7,0.1
		c0.2,0,0.4,0,0.6-0.1c0.2-0.1,0.4-0.2,0.5-0.4c0.1-0.2,0.3-0.3,0.3-0.6s0.1-0.4,0.1-0.7c0-0.2,0-0.5-0.1-0.7
		c-0.1-0.2-0.2-0.4-0.3-0.6c-0.1-0.2-0.3-0.3-0.5-0.4C119.3,57.4,119.1,57.4,118.9,57.4z"/>
</g>
<g id="Слой_28">
	<path id="XMLID_21_" class="st11" d="M125.7,59.6v-3h0.9v5.1h-0.9v-0.4c-0.3,0.3-0.7,0.5-1.3,0.5c-0.7,0-1.2-0.2-1.6-0.6
		c-0.4-0.4-0.6-0.9-0.6-1.6v-2.9h0.9v2.9c0,0.4,0.1,0.7,0.3,0.9c0.2,0.3,0.5,0.4,0.9,0.4c0.4,0,0.7-0.1,0.9-0.4
		C125.6,60.2,125.7,59.9,125.7,59.6z"/>
</g>
<g id="Слой_27">
	<path id="XMLID_23_" class="st11" d="M130.1,57.7h-1.5v-0.9h1.5c0.3,0,0.6,0,0.8,0.1c0.3,0.1,0.5,0.2,0.7,0.3
		c0.2,0.1,0.3,0.3,0.4,0.5c0.1,0.2,0.2,0.4,0.2,0.7c0,0.8-0.3,1.3-0.8,1.5c0.2,0,0.3,0.1,0.5,0.2s0.3,0.2,0.4,0.4
		c0.1,0.2,0.2,0.4,0.3,0.6s0.1,0.4,0.1,0.7c0,0.3,0,0.6-0.1,0.9c-0.1,0.3-0.3,0.6-0.5,0.8c-0.2,0.2-0.5,0.4-0.8,0.6
		c-0.3,0.1-0.7,0.2-1.2,0.2c-0.4,0-0.7-0.1-1-0.2c-0.3-0.1-0.6-0.3-0.8-0.6c-0.2-0.2-0.4-0.5-0.5-0.8c-0.1-0.3-0.2-0.6-0.2-1h0.9
		c0,0.3,0,0.5,0.1,0.7c0.1,0.2,0.2,0.4,0.4,0.5c0.1,0.2,0.3,0.3,0.5,0.3s0.4,0.1,0.6,0.1c0.5,0,0.9-0.1,1.2-0.4
		c0.3-0.3,0.5-0.7,0.5-1.2c0-0.2,0-0.4-0.1-0.5s-0.2-0.3-0.3-0.4c-0.1-0.1-0.3-0.2-0.5-0.3c-0.2-0.1-0.4-0.1-0.6-0.1
		c-0.1,0-0.3,0-0.5,0l0.3-0.9c0.9,0,1.3-0.3,1.3-0.9c0-0.3-0.1-0.5-0.3-0.7C130.8,57.7,130.5,57.7,130.1,57.7z"/>
</g>
<g id="Слой_26">
	<path id="XMLID_25_" class="st11" d="M133.7,59.3v-5h2.6c0.4,0,0.6,0,0.9,0.1c0.2,0.1,0.4,0.2,0.6,0.4s0.3,0.3,0.3,0.5
		c0.1,0.2,0.1,0.4,0.1,0.5c0,0.3-0.1,0.6-0.2,0.8c-0.1,0.3-0.3,0.4-0.5,0.6c0.2,0,0.4,0.1,0.5,0.3s0.3,0.3,0.4,0.4
		c0.1,0.2,0.2,0.4,0.2,0.6c0,0.2,0.1,0.4,0.1,0.6c0,0.4-0.1,0.7-0.2,1.1c-0.1,0.3-0.3,0.6-0.5,0.8c-0.2,0.2-0.5,0.4-0.8,0.5
		c-0.3,0.1-0.6,0.2-1,0.2c-0.3,0-0.7-0.1-1-0.2s-0.6-0.3-0.8-0.5c-0.2-0.2-0.4-0.5-0.5-0.8C133.8,59.9,133.7,59.6,133.7,59.3z
		 M136.2,55.1h-1.6v3.8c0,0.6,0.1,1,0.4,1.4s0.7,0.6,1.2,0.6c0.3,0,0.5,0,0.7-0.1s0.4-0.2,0.5-0.4c0.1-0.2,0.2-0.4,0.3-0.6
		c0.1-0.2,0.1-0.4,0.1-0.7c0-0.2,0-0.4-0.1-0.6c-0.1-0.2-0.2-0.3-0.3-0.5c-0.1-0.1-0.3-0.3-0.5-0.3c-0.2-0.1-0.4-0.1-0.6-0.1
		c-0.2,0-0.5,0-0.7,0.1c-0.3,0.1-0.5,0.2-0.7,0.3l0.3-1c0.3-0.2,0.8-0.3,1.3-0.3c0.2,0,0.4-0.1,0.6-0.2c0.2-0.1,0.3-0.3,0.3-0.6
		C137.3,55.4,137,55.1,136.2,55.1z"/>
</g>
<g id="Слой_25">
	<path id="XMLID_28_" class="st11" d="M142.1,56.5c0.4,0,0.7,0.1,1,0.2c0.3,0.1,0.6,0.3,0.8,0.6c0.2,0.2,0.4,0.5,0.6,0.8
		c0.1,0.3,0.2,0.6,0.2,1c0,0.4-0.1,0.7-0.2,1c-0.1,0.3-0.3,0.6-0.5,0.8c-0.2,0.2-0.5,0.4-0.8,0.6c-0.3,0.1-0.6,0.2-1,0.2
		c-0.4,0-0.7-0.1-1-0.2s-0.6-0.3-0.8-0.6c-0.2-0.2-0.4-0.5-0.5-0.8c-0.1-0.3-0.2-0.6-0.2-1s0.1-0.7,0.2-1s0.3-0.6,0.5-0.8
		c0.2-0.2,0.5-0.4,0.8-0.6C141.5,56.6,141.8,56.5,142.1,56.5z M142.1,57.4c-0.2,0-0.4,0-0.6,0.1c-0.2,0.1-0.4,0.2-0.5,0.4
		c-0.1,0.2-0.3,0.3-0.3,0.6c-0.1,0.2-0.1,0.4-0.1,0.7s0,0.4,0.1,0.7s0.2,0.4,0.3,0.6s0.3,0.3,0.5,0.4s0.4,0.1,0.7,0.1
		c0.2,0,0.4,0,0.6-0.1c0.2-0.1,0.4-0.2,0.5-0.4c0.1-0.2,0.3-0.3,0.3-0.6s0.1-0.4,0.1-0.7c0-0.2,0-0.5-0.1-0.7
		c-0.1-0.2-0.2-0.4-0.3-0.6c-0.1-0.2-0.3-0.3-0.5-0.4C142.6,57.4,142.4,57.4,142.1,57.4z"/>
</g>
<g id="Слой_24">
	<path id="XMLID_31_" class="st11" d="M149.7,59.1v-2.4c0-0.6-0.1-1-0.4-1.2c-0.3-0.2-0.7-0.4-1.2-0.4c-0.2,0-0.3,0-0.5,0
		c-0.2,0-0.4,0.1-0.6,0.1c-0.2,0-0.4,0.1-0.6,0.1c-0.2,0.1-0.4,0.1-0.5,0.2l0.1-0.9c0.3-0.1,0.7-0.2,1.1-0.3s0.8-0.1,1.2-0.1
		c0.3,0,0.6,0,0.9,0.1c0.3,0.1,0.5,0.2,0.7,0.4c0.2,0.2,0.4,0.4,0.5,0.7c0.1,0.3,0.2,0.7,0.2,1.1l0,2c0,0.3,0,0.6,0,0.9
		c0,0.3-0.1,0.5-0.2,0.8c-0.2,0.4-0.5,0.8-0.9,1c-0.4,0.2-0.8,0.4-1.3,0.4c-0.4,0-0.7-0.1-1-0.2c-0.3-0.1-0.6-0.3-0.8-0.5
		s-0.4-0.5-0.5-0.8c-0.1-0.3-0.2-0.7-0.2-1c0-0.4,0.1-0.7,0.2-1.1c0.1-0.3,0.3-0.6,0.5-0.8c0.2-0.2,0.5-0.4,0.8-0.5
		c0.3-0.1,0.6-0.2,0.9-0.2c0.2,0,0.4,0,0.6,0.1c0.2,0,0.3,0.1,0.4,0.1l0.4,1.1c-0.4-0.3-0.8-0.5-1.3-0.5c-0.5,0-0.9,0.2-1.2,0.5
		c-0.3,0.3-0.5,0.8-0.5,1.3c0,0.5,0.2,0.9,0.5,1.3c0.3,0.3,0.7,0.5,1.2,0.5c0.5,0,0.9-0.2,1.2-0.5C149.6,60.1,149.7,59.7,149.7,59.1
		z"/>
</g>
<g id="Слой_23">
	<path id="XMLID_33_" class="st11" d="M151.4,59.1c0-0.3,0.1-0.7,0.2-1c0.1-0.3,0.3-0.6,0.6-0.8c0.2-0.2,0.5-0.4,0.8-0.6
		c0.3-0.1,0.6-0.2,1-0.2c0.8,0,1.5,0.4,2.1,1.1l-0.7,0.6c-0.1-0.3-0.3-0.5-0.6-0.7c-0.3-0.2-0.5-0.2-0.8-0.2c-0.2,0-0.4,0-0.6,0.1
		c-0.2,0.1-0.4,0.2-0.5,0.4c-0.1,0.2-0.3,0.3-0.3,0.6c-0.1,0.2-0.1,0.4-0.1,0.7c0,0.2,0,0.5,0.1,0.7c0.1,0.2,0.2,0.4,0.3,0.6
		s0.3,0.3,0.5,0.4c0.2,0.1,0.4,0.1,0.6,0.1c0.3,0,0.6-0.1,0.9-0.3c0.2-0.2,0.4-0.4,0.6-0.7l0.7,0.6c-0.2,0.3-0.5,0.6-0.9,0.8
		c-0.4,0.2-0.8,0.3-1.2,0.3c-0.4,0-0.7-0.1-1-0.2s-0.6-0.3-0.8-0.6c-0.2-0.2-0.4-0.5-0.5-0.8S151.4,59.5,151.4,59.1z"/>
</g>
<g id="Слой_22">
	<path id="XMLID_35_" class="st11" d="M158.9,56.5c0.6,0,1.2,0.3,1.6,0.8c0.4-0.5,0.9-0.8,1.5-0.8c0.6,0,1.1,0.2,1.5,0.6
		c0.3,0.4,0.5,0.9,0.5,1.6v2.9h-0.9v-3.1c0-0.3-0.1-0.6-0.3-0.9c-0.2-0.2-0.5-0.3-0.8-0.3c-0.3,0-0.6,0.1-0.8,0.3s-0.3,0.5-0.3,0.8
		v3.1H160v-3.1c0-0.3-0.1-0.6-0.3-0.9c-0.2-0.2-0.5-0.3-0.8-0.3c-0.3,0-0.6,0.1-0.8,0.3c-0.2,0.2-0.3,0.5-0.3,0.9v3.1h-0.9v-2.9
		c0-0.6,0.2-1.2,0.5-1.6C157.7,56.8,158.2,56.5,158.9,56.5z"/>
</g>
<g id="Слой_21">
	<path id="XMLID_37_" class="st11" d="M165,59.3v-5h2.6c0.4,0,0.6,0,0.9,0.1c0.2,0.1,0.4,0.2,0.6,0.4s0.3,0.3,0.3,0.5
		c0.1,0.2,0.1,0.4,0.1,0.5c0,0.3-0.1,0.6-0.2,0.8c-0.1,0.3-0.3,0.4-0.5,0.6c0.2,0,0.4,0.1,0.5,0.3s0.3,0.3,0.4,0.4
		c0.1,0.2,0.2,0.4,0.2,0.6c0,0.2,0.1,0.4,0.1,0.6c0,0.4-0.1,0.7-0.2,1.1c-0.1,0.3-0.3,0.6-0.5,0.8c-0.2,0.2-0.5,0.4-0.8,0.5
		c-0.3,0.1-0.6,0.2-1,0.2c-0.3,0-0.7-0.1-1-0.2s-0.6-0.3-0.8-0.5c-0.2-0.2-0.4-0.5-0.5-0.8C165.1,59.9,165,59.6,165,59.3z
		 M167.6,55.1h-1.6v3.8c0,0.6,0.1,1,0.4,1.4s0.7,0.6,1.2,0.6c0.3,0,0.5,0,0.7-0.1s0.4-0.2,0.5-0.4c0.1-0.2,0.2-0.4,0.3-0.6
		c0.1-0.2,0.1-0.4,0.1-0.7c0-0.2,0-0.4-0.1-0.6c-0.1-0.2-0.2-0.3-0.3-0.5c-0.1-0.1-0.3-0.3-0.5-0.3c-0.2-0.1-0.4-0.1-0.6-0.1
		c-0.2,0-0.5,0-0.7,0.1c-0.3,0.1-0.5,0.2-0.7,0.3l0.3-1c0.3-0.2,0.8-0.3,1.3-0.3c0.2,0,0.4-0.1,0.6-0.2c0.2-0.1,0.3-0.3,0.3-0.6
		C168.6,55.4,168.3,55.1,167.6,55.1z"/>
</g>
<g id="Слой_20">
	<path id="XMLID_41_" class="st11" d="M170.9,59.1c0-0.3,0.1-0.7,0.2-1c0.1-0.3,0.3-0.6,0.6-0.8c0.2-0.2,0.5-0.4,0.8-0.6
		c0.3-0.1,0.6-0.2,1-0.2s0.7,0.1,1,0.2c0.3,0.1,0.6,0.3,0.8,0.6c0.2,0.2,0.4,0.5,0.6,0.8c0.1,0.3,0.2,0.6,0.2,1c0,0.1,0,0.3,0,0.4
		h-4.1c0.1,0.4,0.3,0.7,0.6,1c0.3,0.3,0.6,0.4,1,0.4c0.6,0,1-0.3,1.4-0.8l0.7,0.6c-0.2,0.3-0.5,0.6-0.9,0.7
		c-0.4,0.2-0.7,0.3-1.1,0.3c-0.4,0-0.7-0.1-1-0.2c-0.3-0.1-0.6-0.3-0.8-0.6c-0.2-0.2-0.4-0.5-0.5-0.8
		C171,59.8,170.9,59.5,170.9,59.1z M173.5,57.4c-0.4,0-0.7,0.1-1,0.4c-0.3,0.3-0.5,0.6-0.6,1h3.1c-0.1-0.4-0.3-0.7-0.5-1
		C174.2,57.5,173.8,57.4,173.5,57.4z"/>
</g>
<g id="Слой_19">
	<path id="XMLID_44_" class="st11" d="M177.8,59.3v2.4h-0.9v-5.1h0.9v1.8h2.5v-1.8h0.9v5.1h-0.9v-2.4H177.8z"/>
</g>
<g id="Слой_18">
	<path id="XMLID_46_" class="st11" d="M183.2,59.3v2.4h-0.9v-5.1h0.9v1.8h2.5v-1.8h0.9v5.1h-0.9v-2.4H183.2z"/>
</g>
<g id="Слой_17">
	<path id="XMLID_48_" class="st11" d="M192.5,59.6v2.1h-0.9v-2.5c0-0.5-0.1-1-0.5-1.3c-0.3-0.3-0.7-0.5-1.2-0.5
		c-0.5,0-0.9,0.2-1.2,0.5c-0.3,0.3-0.5,0.7-0.5,1.3c0,0.3,0,0.5,0.1,0.7c0.1,0.2,0.2,0.4,0.3,0.6c0.2,0.2,0.3,0.3,0.5,0.4
		c0.2,0.1,0.4,0.1,0.7,0.1c0.4,0,0.9-0.2,1.3-0.5l-0.4,1.1c-0.3,0.1-0.6,0.2-1,0.2c-0.3,0-0.6-0.1-0.9-0.2c-0.3-0.1-0.6-0.3-0.8-0.5
		c-0.2-0.2-0.4-0.5-0.5-0.8c-0.1-0.3-0.2-0.7-0.2-1.1c0-0.4,0.1-0.7,0.2-1.1c0.1-0.3,0.3-0.6,0.5-0.8s0.5-0.4,0.8-0.5
		c0.3-0.1,0.6-0.2,1-0.2c0.5,0,0.9,0.1,1.3,0.4c0.4,0.2,0.7,0.6,0.9,1c0.1,0.1,0.1,0.3,0.2,0.4c0,0.1,0.1,0.3,0.1,0.4
		c0,0.1,0,0.3,0,0.4C192.5,59.2,192.5,59.4,192.5,59.6z"/>
</g>
<g id="Слой_16">
	<path id="XMLID_50_" class="st11" d="M197.4,59.1v2.6h-0.9v-3.1c0-0.2,0-0.3-0.1-0.5c-0.1-0.1-0.2-0.3-0.3-0.4
		c-0.1-0.1-0.2-0.2-0.4-0.2c-0.1-0.1-0.3-0.1-0.4-0.1c-0.3,0-0.6,0.1-0.8,0.3c-0.2,0.2-0.3,0.5-0.3,0.8c0,0.3,0.1,0.6,0.3,0.8
		s0.5,0.3,0.8,0.3c0.3,0,0.6-0.1,0.9-0.4l-0.3,1.1c-0.1,0-0.1,0.1-0.2,0.1l-1.2,1.2l-0.6-0.7l0.7-0.7c-0.4-0.2-0.6-0.4-0.9-0.7
		s-0.3-0.7-0.3-1.1c0-0.3,0.1-0.5,0.2-0.8c0.1-0.2,0.2-0.5,0.4-0.6c0.2-0.2,0.4-0.3,0.6-0.4s0.5-0.2,0.8-0.2c0.9,0,1.5,0.4,1.9,1.2
		C197.3,58,197.4,58.4,197.4,59.1z"/>
</g>
<g id="Слой_15">
	<path id="XMLID_52_" class="st11" d="M202.7,61.7h-0.9v-5.1h0.9v2l2.1-2h1.1l-1.9,1.8c0.2,0,0.4,0,0.6,0.1c0.2,0.1,0.4,0.2,0.5,0.4
		c0.1,0.2,0.3,0.3,0.3,0.5c0.1,0.2,0.1,0.4,0.1,0.6v1.6h-0.9v-1.5c0-0.3-0.1-0.6-0.3-0.8c-0.2-0.2-0.5-0.3-0.8-0.3
		c-0.2,0-0.4,0.1-0.6,0.2s-0.3,0.3-0.3,0.6V61.7z"/>
</g>
<g id="Слой_14">
	<path id="XMLID_54_" class="st11" d="M209,56.5c0.4,0,0.7,0.1,1,0.2c0.3,0.1,0.6,0.3,0.8,0.6c0.2,0.2,0.4,0.5,0.6,0.8
		c0.1,0.3,0.2,0.6,0.2,1c0,0.4-0.1,0.7-0.2,1c-0.1,0.3-0.3,0.6-0.5,0.8c-0.2,0.2-0.5,0.4-0.8,0.6c-0.3,0.1-0.6,0.2-1,0.2
		c-0.4,0-0.7-0.1-1-0.2c-0.3-0.1-0.6-0.3-0.8-0.6c-0.2-0.2-0.4-0.5-0.5-0.8c-0.1-0.3-0.2-0.6-0.2-1s0.1-0.7,0.2-1s0.3-0.6,0.5-0.8
		c0.2-0.2,0.5-0.4,0.8-0.6C208.3,56.6,208.7,56.5,209,56.5z M209,57.4c-0.2,0-0.4,0-0.6,0.1c-0.2,0.1-0.4,0.2-0.5,0.4
		c-0.1,0.2-0.3,0.3-0.3,0.6c-0.1,0.2-0.1,0.4-0.1,0.7s0,0.4,0.1,0.7s0.2,0.4,0.3,0.6s0.3,0.3,0.5,0.4s0.4,0.1,0.7,0.1
		c0.2,0,0.4,0,0.6-0.1c0.2-0.1,0.4-0.2,0.5-0.4c0.1-0.2,0.3-0.3,0.3-0.6s0.1-0.4,0.1-0.7c0-0.2,0-0.5-0.1-0.7
		c-0.1-0.2-0.2-0.4-0.3-0.6c-0.1-0.2-0.3-0.3-0.5-0.4C209.4,57.4,209.2,57.4,209,57.4z"/>
</g>
<g id="Слой_13">
	<path id="XMLID_57_" class="st11" d="M216.7,56.5c0.4,0,0.6,0.2,0.7,0.6l0.9,4.6h-0.9l-0.7-4l-0.9,3.2c-0.1,0.5-0.4,0.8-0.7,0.8
		c-0.2,0-0.3-0.1-0.4-0.2c-0.1-0.1-0.2-0.3-0.3-0.6l-0.9-3.2l-0.7,4h-0.9l0.9-4.6c0.1-0.4,0.3-0.6,0.7-0.6c0.3,0,0.6,0.2,0.7,0.6
		l0.9,3.2l0.9-3.2C216.1,56.7,216.4,56.5,216.7,56.5z"/>
</g>
<g id="Слой_12">
	<path id="XMLID_59_" class="st11" d="M219.7,58.8v2.9h-0.9v-2.8c0-0.4,0.1-0.7,0.2-1c0.1-0.3,0.3-0.5,0.4-0.8
		c0.2-0.2,0.4-0.4,0.7-0.5c0.3-0.1,0.6-0.2,0.9-0.2c0.6,0,1.2,0.2,1.5,0.6c0.4,0.4,0.6,1,0.6,1.8v2.8h-0.9v-2.9c0-0.4-0.1-0.7-0.4-1
		c-0.2-0.3-0.5-0.4-0.9-0.4c-0.4,0-0.7,0.1-0.9,0.4C219.8,58.1,219.7,58.4,219.7,58.8z"/>
</g>
<g id="Слой_11">
	<path id="XMLID_61_" class="st11" d="M229,59.6v2.1h-0.9v-2.5c0-0.5-0.2-1-0.5-1.3c-0.3-0.3-0.7-0.5-1.2-0.5s-0.9,0.2-1.2,0.5
		c-0.3,0.3-0.5,0.7-0.5,1.3c0,0.3,0,0.5,0.1,0.7c0.1,0.2,0.2,0.4,0.3,0.6c0.2,0.2,0.3,0.3,0.5,0.4s0.4,0.1,0.7,0.1
		c0.4,0,0.9-0.2,1.3-0.5l-0.4,1.1c-0.3,0.1-0.6,0.2-1,0.2c-0.3,0-0.6-0.1-0.9-0.2s-0.6-0.3-0.8-0.5c-0.2-0.2-0.4-0.5-0.5-0.8
		s-0.2-0.7-0.2-1.1c0-0.4,0.1-0.7,0.2-1.1c0.1-0.3,0.3-0.6,0.5-0.8s0.5-0.4,0.8-0.5c0.3-0.1,0.6-0.2,1-0.2c0.5,0,0.9,0.1,1.3,0.4
		c0.4,0.2,0.7,0.6,0.9,1c0.1,0.1,0.1,0.3,0.2,0.4c0,0.1,0.1,0.3,0.1,0.4c0,0.1,0,0.3,0,0.4C229,59.2,229,59.4,229,59.6z"/>
</g>
<g id="Слой_10">
	<path id="XMLID_63_" class="st11" d="M231,59.3v2.4h-0.9v-5.1h0.9v1.8h2.5v-1.8h0.9v5.1h-0.9v-2.4H231z"/>
</g>
<g id="Слой_9">
	<path id="XMLID_65_" class="st11" d="M238.9,59.6v-3h0.9v5.1h-0.9v-0.4c-0.3,0.3-0.7,0.5-1.3,0.5c-0.7,0-1.2-0.2-1.6-0.6
		c-0.4-0.4-0.5-0.9-0.5-1.6v-2.9h0.9v2.9c0,0.4,0.1,0.7,0.3,0.9c0.2,0.3,0.5,0.4,0.9,0.4c0.4,0,0.7-0.1,0.9-0.4
		C238.8,60.2,238.9,59.9,238.9,59.6z"/>
</g>
<g id="Слой_8">
	<path id="XMLID_67_" class="st11" d="M244.7,59.1v2.6h-0.9v-3.1c0-0.2,0-0.3-0.1-0.5c-0.1-0.1-0.2-0.3-0.3-0.4
		c-0.1-0.1-0.2-0.2-0.4-0.2c-0.1-0.1-0.3-0.1-0.4-0.1c-0.3,0-0.6,0.1-0.8,0.3c-0.2,0.2-0.3,0.5-0.3,0.8c0,0.3,0.1,0.6,0.3,0.8
		c0.2,0.2,0.5,0.3,0.8,0.3c0.3,0,0.6-0.1,0.8-0.4l-0.3,1.1c-0.1,0-0.1,0.1-0.2,0.1l-1.2,1.2l-0.7-0.7l0.7-0.7
		c-0.4-0.2-0.6-0.4-0.9-0.7c-0.2-0.3-0.3-0.7-0.3-1.1c0-0.3,0.1-0.5,0.2-0.8c0.1-0.2,0.2-0.5,0.4-0.6c0.2-0.2,0.4-0.3,0.6-0.4
		s0.5-0.2,0.8-0.2c0.9,0,1.5,0.4,1.9,1.2C244.7,58,244.7,58.4,244.7,59.1z"/>
</g>
<g id="Слой_7">
	<path class="st10" d="M203.3,71.8"/>
</g>
<g id="Слой_6">
	<path class="st12" d="M62.5,53.7c5.3-0.4,11-7.7,10.8-12.9l0-7.1l0-10L67.5,31l0,10.3C67.5,45.1,66.4,49.1,62.5,53.7L62.5,53.7z"/>
</g>
<g id="Слой_5">
	<path class="st12" d="M48.1,39.4c-1.5,1.9-2.9,3.7-4.4,5.6c0.2,7.3,4.8,13.4,10.7,15c7.7,2,17.2-3.9,18.8-14
		c-2.2,6.8-9.4,10.7-16.1,8.7C50.8,52.8,46.8,46.1,48.1,39.4z"/>
</g>
<g id="Слой_4">
	<path class="st12" d="M20.8,38.8c-0.1-0.8-0.7-8.3,4.9-13.1c3.2-2.7,6.7-3.2,8.2-3.4l7.1,0c3.5,0,7,0,10.4,0
		c-1.5,1.9-3,3.8-4.5,5.7c-4.5,0.1-9.1,0.1-13.6,0.2c-1.9,0-2.7,0.1-3.8,0.4C24.7,30.1,22.1,35.4,20.8,38.8z"/>
</g>
<g id="Слой_3">
	<path class="st12" d="M20.4,55.4c0-0.4-0.1-0.9-0.1-1.6c0-2.3-0.1-6.9,2.4-10.3c3.2-4.2,9.1-4.3,10-4.3c1.3,0,2.6,0,3.9,0
		c3.5,0,7,0,10.4,0c-1.5,1.9-3,3.7-4.5,5.6c-5.3,0-9.2,0-10.8,0c-0.3,0-1.1,0-1.9,0.4c-0.8,0.3-1.3,0.7-1.6,0.9
		c0,0-3.8,2.9-3.8,10.7c0,0.1,0,0.8,0,1.7c0,0.5,0,0.9,0,1.4c0,0.8-0.1,0.8-0.1,1.4c0,0.3,0,0.5,0,0.5
		C24.1,61.8,23.2,60.4,20.4,55.4z"/>
</g>
<g id="Слой_2">
	<path class="st12" d="M28.3,40.2c-0.2,0.2-0.9,1.1-1,2.4c-0.1,1.5,0.8,2.6,0.9,2.8c-0.5,0.7-1.2,1.8-1.7,3.3
		c-0.6,1.7-0.7,3.2-0.7,4.2c0,3.5,0,6.9,0,10.4c-1.9-1.5-3.8-3-5.7-4.5c-0.1-1.2-0.2-3.1-0.1-5.4c0.3-4.4,0.5-7.8,2.9-10.4
		C23.8,42.2,25.4,40.8,28.3,40.2z"/>
</g>
</svg>
